<svg class="icon" viewBox="0 0 1028 1024" xmlns="http://www.w3.org/2000/svg" width="200.781" height="200"><defs><style/></defs><path d="M779.156 1017.313H238.6c-65.583 0-118.947-53.248-118.947-118.703V441.24c0-13.125 10.64-23.764 23.763-23.764 13.123 0 23.763 10.641 23.763 23.764V898.61c0 39.244 32.038 71.175 71.419 71.175h540.556c39.382 0 71.419-32.038 71.419-71.419V634.853c0-13.125 10.641-23.764 23.763-23.764S898.1 621.73 898.1 634.853v263.513c.003 65.583-53.362 118.947-118.943 118.947z"/><path d="M25.792 583.82a23.69 23.69 0 0 1-16.57-6.73c-9.41-9.143-9.618-24.193-.464-33.604l480.127-519.74a23.789 23.789 0 0 1 17.034-7.194h.115a23.756 23.756 0 0 1 17.081 7.367l482.38 519.743c9.063 9.49 8.703 24.541-.8 33.591-9.48 9.05-24.53 8.703-33.592-.8L505.744 74.57 42.825 576.627c-4.651 4.793-10.849 7.193-17.033 7.193zM396.502 1012.173h-47.529v-254.01c0-65.42 53.237-118.634 118.681-118.634h85.958c65.443 0 118.68 53.33 118.68 118.876v249.624h-47.528V758.406c0-39.347-31.92-71.35-71.152-71.35h-85.958c-39.231 0-71.152 31.898-71.152 71.106v254.011z"/></svg>