<?xml version="1.0" standalone="no"?><!DOCTYPE svg PUBLIC "-//W3C//DTD SVG 1.1//EN" "http://www.w3.org/Graphics/SVG/1.1/DTD/svg11.dtd"><svg t="1512543732795" class="icon" style="" viewBox="0 0 1028 1024" version="1.1" xmlns="http://www.w3.org/2000/svg" p-id="21156" xmlns:xlink="http://www.w3.org/1999/xlink" width="200.78125" height="200"><defs><style type="text/css"></style></defs><path d="M779.156278 1017.313277 238.599875 1017.313277c-65.583194 0-118.947258-53.248531-118.947258-118.703017L119.652617 441.238598c0-13.124138 10.641193-23.763305 23.763305-23.763305 13.123125 0 23.763305 10.641193 23.763305 23.763305L167.179227 898.611273c0 39.243707 32.038099 71.174381 71.418622 71.174381l540.556402 0c39.381536 0 71.418622-32.038099 71.418622-71.418622L850.572873 634.852576c0-13.124138 10.641193-23.763305 23.763305-23.763305s23.763305 10.641193 23.763305 23.763305l0 263.513443C898.101509 963.949213 844.737445 1017.313277 779.156278 1017.313277z" p-id="21157"></path><path d="M25.792226 583.820454c-5.975283 0-11.95158-2.238704-16.569858-6.730301-9.409855-9.143319-9.618625-24.193006-0.464159-33.603875L488.884795 23.745063c4.479436-4.594969 10.616871-7.193447 17.034017-7.193447 0.034457 0 0.081076 0 0.115533 0 6.462751 0.034457 12.625522 2.691715 17.080635 7.36776l482.380492 519.742228c9.062243 9.490931 8.702469 24.541632-0.800623 33.591713-9.480796 9.050082-24.529471 8.702469-33.591713-0.800623L505.744499 74.570442 42.825229 576.627007C38.173507 581.419598 31.976279 583.820454 25.792226 583.820454z" p-id="21158"></path><path d="M396.502009 1012.173074 348.973372 1012.173074l0-254.01035c0-65.420029 53.23637-118.634103 118.680722-118.634103l85.957532 0c65.443339 0 118.680722 53.329607 118.680722 118.876317l0 249.624152-47.528636 0L624.763711 758.405951c0-39.347079-31.920539-71.349707-71.152085-71.349707l-85.957532 0c-39.231546 0-71.152085 31.898244-71.152085 71.105467L396.502009 1012.173074 396.502009 1012.173074z" p-id="21159"></path></svg>